<mxfile host="app.diagrams.net" agent="Mozilla/5.0 (Windows NT 10.0; Win64; x64; rv:135.0) Gecko/20100101 Firefox/135.0" version="26.0.13">
  <diagram name="Page-1" id="3i591DdVrRB3fAPAzp50">
    <mxGraphModel dx="1400" dy="671" grid="1" gridSize="10" guides="1" tooltips="1" connect="1" arrows="1" fold="1" page="1" pageScale="1" pageWidth="850" pageHeight="1100" background="#ffffff" math="0" shadow="0">
      <root>
        <mxCell id="0" />
        <mxCell id="1" parent="0" />
        <mxCell id="VFmURf2ojcirgpa92Rr2-2" value="" style="whiteSpace=wrap;html=1;fillColor=none;" vertex="1" parent="1">
          <mxGeometry x="160" y="120" width="680" height="800" as="geometry" />
        </mxCell>
        <mxCell id="VFmURf2ojcirgpa92Rr2-1" value="Actor" style="shape=umlActor;verticalLabelPosition=bottom;verticalAlign=top;html=1;outlineConnect=0;" vertex="1" parent="1">
          <mxGeometry x="80" y="160" width="30" height="60" as="geometry" />
        </mxCell>
        <mxCell id="VFmURf2ojcirgpa92Rr2-3" value="&lt;div&gt;&lt;font style=&quot;font-size: 16px;&quot;&gt;&lt;b&gt;Menus/UI:&lt;/b&gt;&amp;nbsp;&lt;/font&gt;&lt;/div&gt;&lt;div&gt;&lt;font style=&quot;font-size: 16px;&quot;&gt;The player interacts with the start menu&lt;/font&gt;&lt;/div&gt;" style="ellipse;whiteSpace=wrap;html=1;" vertex="1" parent="1">
          <mxGeometry x="240" y="140" width="160" height="120" as="geometry" />
        </mxCell>
        <mxCell id="VFmURf2ojcirgpa92Rr2-4" value="&lt;div&gt;&lt;font style=&quot;font-size: 16px;&quot;&gt;&lt;b&gt;Save System:&lt;/b&gt;&lt;/font&gt;&lt;/div&gt;&lt;div&gt;&lt;font style=&quot;font-size: 16px;&quot;&gt;Player chooses new game or load game&lt;/font&gt;&lt;/div&gt;" style="ellipse;whiteSpace=wrap;html=1;" vertex="1" parent="1">
          <mxGeometry x="240" y="320" width="160" height="120" as="geometry" />
        </mxCell>
        <mxCell id="VFmURf2ojcirgpa92Rr2-5" value="&lt;div&gt;&lt;b&gt;Level Builder:&lt;/b&gt;&lt;/div&gt;&lt;div&gt;The world map is produced by the Level Builder.&lt;/div&gt;" style="ellipse;whiteSpace=wrap;html=1;fontSize=16;" vertex="1" parent="1">
          <mxGeometry x="220" y="520" width="200" height="120" as="geometry" />
        </mxCell>
        <mxCell id="VFmURf2ojcirgpa92Rr2-6" value="&lt;div&gt;&lt;b&gt;NPC Manager:&lt;/b&gt;&amp;nbsp;&lt;/div&gt;&lt;div&gt;NPC location data provided to Level Builder. &lt;/div&gt;" style="ellipse;whiteSpace=wrap;html=1;fontSize=16;" vertex="1" parent="1">
          <mxGeometry x="520" y="600" width="160" height="120" as="geometry" />
        </mxCell>
        <mxCell id="VFmURf2ojcirgpa92Rr2-10" value="&amp;lt;&amp;lt;extend&amp;gt;&amp;gt;" style="html=1;verticalAlign=bottom;labelBackgroundColor=none;endArrow=open;endFill=0;dashed=1;rounded=0;exitX=0;exitY=0.5;exitDx=0;exitDy=0;entryX=1;entryY=0;entryDx=0;entryDy=0;endSize=13;fontSize=16;" edge="1" parent="1" source="VFmURf2ojcirgpa92Rr2-19" target="VFmURf2ojcirgpa92Rr2-5">
          <mxGeometry width="160" relative="1" as="geometry">
            <mxPoint x="440" y="239" as="sourcePoint" />
            <mxPoint x="380" y="239" as="targetPoint" />
          </mxGeometry>
        </mxCell>
        <mxCell id="VFmURf2ojcirgpa92Rr2-11" value="&amp;lt;&amp;lt;include&amp;gt;&amp;gt;" style="html=1;verticalAlign=bottom;labelBackgroundColor=none;endArrow=open;endFill=0;dashed=1;rounded=0;exitX=0.968;exitY=0.724;exitDx=0;exitDy=0;entryX=0;entryY=0.5;entryDx=0;entryDy=0;strokeWidth=1;endSize=13;exitPerimeter=0;fontSize=16;" edge="1" parent="1" source="VFmURf2ojcirgpa92Rr2-5" target="VFmURf2ojcirgpa92Rr2-6">
          <mxGeometry width="160" relative="1" as="geometry">
            <mxPoint x="490" y="560" as="sourcePoint" />
            <mxPoint x="370" y="560" as="targetPoint" />
          </mxGeometry>
        </mxCell>
        <mxCell id="VFmURf2ojcirgpa92Rr2-12" value="" style="endArrow=block;html=1;rounded=0;exitX=0.5;exitY=1;exitDx=0;exitDy=0;entryX=0.5;entryY=0;entryDx=0;entryDy=0;endFill=0;endSize=13;" edge="1" parent="1" source="VFmURf2ojcirgpa92Rr2-3" target="VFmURf2ojcirgpa92Rr2-4">
          <mxGeometry width="50" height="50" relative="1" as="geometry">
            <mxPoint x="330" y="430" as="sourcePoint" />
            <mxPoint x="380" y="380" as="targetPoint" />
          </mxGeometry>
        </mxCell>
        <mxCell id="VFmURf2ojcirgpa92Rr2-13" value="" style="endArrow=block;html=1;rounded=0;entryX=0.5;entryY=0;entryDx=0;entryDy=0;endFill=0;endSize=13;exitX=0.5;exitY=1;exitDx=0;exitDy=0;" edge="1" parent="1" source="VFmURf2ojcirgpa92Rr2-4" target="VFmURf2ojcirgpa92Rr2-5">
          <mxGeometry width="50" height="50" relative="1" as="geometry">
            <mxPoint x="300" y="460" as="sourcePoint" />
            <mxPoint x="299.83" y="400" as="targetPoint" />
          </mxGeometry>
        </mxCell>
        <mxCell id="VFmURf2ojcirgpa92Rr2-14" value="&lt;div&gt;&lt;b&gt;Scene Engine:&lt;/b&gt;&lt;/div&gt;&lt;div&gt;Backgrounds and weather provided to the Level Builder.&lt;/div&gt;" style="ellipse;whiteSpace=wrap;html=1;fontSize=16;" vertex="1" parent="1">
          <mxGeometry x="520" y="440" width="160" height="120" as="geometry" />
        </mxCell>
        <mxCell id="VFmURf2ojcirgpa92Rr2-15" value="&amp;lt;&amp;lt;include&amp;gt;&amp;gt;" style="html=1;verticalAlign=bottom;labelBackgroundColor=none;endArrow=open;endFill=0;dashed=1;rounded=0;exitX=1;exitY=1;exitDx=0;exitDy=0;entryX=0;entryY=0.5;entryDx=0;entryDy=0;strokeWidth=1;endSize=13;fontSize=16;" edge="1" parent="1" source="VFmURf2ojcirgpa92Rr2-5" target="VFmURf2ojcirgpa92Rr2-23">
          <mxGeometry width="160" relative="1" as="geometry">
            <mxPoint x="480" y="439.5" as="sourcePoint" />
            <mxPoint x="360" y="439.5" as="targetPoint" />
          </mxGeometry>
        </mxCell>
        <mxCell id="VFmURf2ojcirgpa92Rr2-18" value="A new game starts for the player." style="ellipse;whiteSpace=wrap;html=1;fontSize=16;" vertex="1" parent="1">
          <mxGeometry x="260" y="960" width="120" height="80" as="geometry" />
        </mxCell>
        <mxCell id="VFmURf2ojcirgpa92Rr2-19" value="&lt;b&gt;Character Creator: &lt;/b&gt;Player chooses stats for their save game." style="ellipse;whiteSpace=wrap;html=1;fontSize=16;" vertex="1" parent="1">
          <mxGeometry x="520" y="280" width="160" height="120" as="geometry" />
        </mxCell>
        <mxCell id="VFmURf2ojcirgpa92Rr2-20" value="" style="endArrow=block;html=1;rounded=0;entryX=0.5;entryY=0;entryDx=0;entryDy=0;endFill=0;endSize=13;exitX=0.5;exitY=1;exitDx=0;exitDy=0;" edge="1" parent="1" source="VFmURf2ojcirgpa92Rr2-5" target="VFmURf2ojcirgpa92Rr2-18">
          <mxGeometry width="50" height="50" relative="1" as="geometry">
            <mxPoint x="300" y="610" as="sourcePoint" />
            <mxPoint x="299.5" y="520" as="targetPoint" />
          </mxGeometry>
        </mxCell>
        <mxCell id="VFmURf2ojcirgpa92Rr2-21" value="" style="endArrow=none;html=1;rounded=0;entryX=0;entryY=0.5;entryDx=0;entryDy=0;" edge="1" parent="1" target="VFmURf2ojcirgpa92Rr2-3">
          <mxGeometry width="50" height="50" relative="1" as="geometry">
            <mxPoint x="120" y="200" as="sourcePoint" />
            <mxPoint x="430" y="430" as="targetPoint" />
          </mxGeometry>
        </mxCell>
        <mxCell id="VFmURf2ojcirgpa92Rr2-23" value="&lt;div&gt;&lt;b&gt;Collectables:&lt;/b&gt;&lt;/div&gt;&lt;div&gt;Location data provided to the Level Builder.&lt;/div&gt;" style="ellipse;whiteSpace=wrap;html=1;fontSize=16;" vertex="1" parent="1">
          <mxGeometry x="520" y="760" width="160" height="120" as="geometry" />
        </mxCell>
        <mxCell id="VFmURf2ojcirgpa92Rr2-24" value="&amp;lt;&amp;lt;include&amp;gt;&amp;gt;" style="html=1;verticalAlign=bottom;labelBackgroundColor=none;endArrow=open;endFill=0;dashed=1;rounded=0;exitX=0.989;exitY=0.359;exitDx=0;exitDy=0;entryX=0;entryY=0.5;entryDx=0;entryDy=0;strokeWidth=1;endSize=13;exitPerimeter=0;fontSize=16;" edge="1" parent="1" source="VFmURf2ojcirgpa92Rr2-5" target="VFmURf2ojcirgpa92Rr2-14">
          <mxGeometry width="160" relative="1" as="geometry">
            <mxPoint x="424" y="617" as="sourcePoint" />
            <mxPoint x="530" y="630" as="targetPoint" />
          </mxGeometry>
        </mxCell>
      </root>
    </mxGraphModel>
  </diagram>
</mxfile>
